<?xml version="1.0" encoding="UTF-8" standalone="no"?>
<svg
   xmlns:dc="http://purl.org/dc/elements/1.1/"
   xmlns:cc="http://creativecommons.org/ns#"
   xmlns:rdf="http://www.w3.org/1999/02/22-rdf-syntax-ns#"
   xmlns:svg="http://www.w3.org/2000/svg"
   xmlns="http://www.w3.org/2000/svg"
   xmlns:sodipodi="http://sodipodi.sourceforge.net/DTD/sodipodi-0.dtd"
   xmlns:inkscape="http://www.inkscape.org/namespaces/inkscape"
   version="1.1"
   width="24"
   height="24"
   viewBox="0 0 24 24"
   id="svg4"
   sodipodi:docname="calculator-variant.svg"
   inkscape:version="0.92.4 5da689c313, 2019-01-14"
   inkscape:export-filename="/home/kurtis/Documents/homework_working/web_based_systems/a2/react-calculator/public/favicon.png"
   inkscape:export-xdpi="153.60001"
   inkscape:export-ydpi="153.60001">
  <metadata
     id="metadata10">
    <rdf:RDF>
      <cc:Work
         rdf:about="">
        <dc:format>image/svg+xml</dc:format>
        <dc:type
           rdf:resource="http://purl.org/dc/dcmitype/StillImage" />
      </cc:Work>
    </rdf:RDF>
  </metadata>
  <defs
     id="defs8" />
  <sodipodi:namedview
     pagecolor="#ffffff"
     bordercolor="#666666"
     borderopacity="1"
     objecttolerance="10"
     gridtolerance="10"
     guidetolerance="10"
     inkscape:pageopacity="0"
     inkscape:pageshadow="2"
     inkscape:window-width="1339"
     inkscape:window-height="798"
     id="namedview6"
     showgrid="false"
     inkscape:zoom="22.701172"
     inkscape:cx="12"
     inkscape:cy="12"
     inkscape:window-x="0"
     inkscape:window-y="0"
     inkscape:window-maximized="0"
     inkscape:current-layer="svg4" />
  <path
     d="M9,2H4A2,2 0 0,0 2,4V9A2,2 0 0,0 4,11H9A2,2 0 0,0 11,9V4A2,2 0 0,0 9,2M9,7H4V6H9V7M20,13H15A2,2 0 0,0 13,15V20A2,2 0 0,0 15,22H20A2,2 0 0,0 22,20V15A2,2 0 0,0 20,13M20,19H15V18H20V19M20,17H15V16H20V17M20,2H15A2,2 0 0,0 13,4V9A2,2 0 0,0 15,11H20A2,2 0 0,0 22,9V4A2,2 0 0,0 20,2M20,7H18V9H17V7H15V6H17V4H18V6H20V7M9,13H4A2,2 0 0,0 2,15V20A2,2 0 0,0 4,22H9A2,2 0 0,0 11,20V15A2,2 0 0,0 9,13M8.62,18.91L7.91,19.62L6.5,18.21L5.09,19.62L4.38,18.91L5.79,17.5L4.38,16.09L5.09,15.38L6.5,16.79L7.91,15.38L8.62,16.09L7.21,17.5L8.62,18.91Z"
     id="path2"
     style="fill:#3f51b5;fill-opacity:1" />
</svg>
