<?xml version="1.0" encoding="UTF-8" standalone="no"?>
<svg
   xmlns:dc="http://purl.org/dc/elements/1.1/"
   xmlns:cc="http://creativecommons.org/ns#"
   xmlns:rdf="http://www.w3.org/1999/02/22-rdf-syntax-ns#"
   xmlns:svg="http://www.w3.org/2000/svg"
   xmlns="http://www.w3.org/2000/svg"
   xmlns:sodipodi="http://sodipodi.sourceforge.net/DTD/sodipodi-0.dtd"
   xmlns:inkscape="http://www.inkscape.org/namespaces/inkscape"
   version="1.1"
   width="256"
   height="256"
   viewBox="0 0 256 256"
   id="svg4"
   sodipodi:docname="calculator-variant.svg"
   inkscape:version="0.92.4 5da689c313, 2019-01-14"
   inkscape:export-filename="/home/kurtis/Documents/homework_working/web_based_systems/a2/react-calculator/public/favicon.png"
   inkscape:export-xdpi="153.60001"
   inkscape:export-ydpi="153.60001">
  <metadata
     id="metadata10">
    <rdf:RDF>
      <cc:Work
         rdf:about="">
        <dc:format>image/svg+xml</dc:format>
        <dc:type
           rdf:resource="http://purl.org/dc/dcmitype/StillImage" />
        <dc:title></dc:title>
      </cc:Work>
    </rdf:RDF>
  </metadata>
  <defs
     id="defs8" />
  <sodipodi:namedview
     pagecolor="#ffffff"
     bordercolor="#666666"
     borderopacity="1"
     objecttolerance="10"
     gridtolerance="10"
     guidetolerance="10"
     inkscape:pageopacity="0"
     inkscape:pageshadow="2"
     inkscape:window-width="1366"
     inkscape:window-height="720"
     id="namedview6"
     showgrid="false"
     inkscape:zoom="1.9257812"
     inkscape:cx="128"
     inkscape:cy="128"
     inkscape:window-x="0"
     inkscape:window-y="0"
     inkscape:window-maximized="1"
     inkscape:current-layer="svg4"
     fit-margin-top="0"
     fit-margin-left="0"
     fit-margin-right="0"
     fit-margin-bottom="0" />
  <path
     d="m 89.6,0 h -64 A 25.6,25.6 0 0 0 0,25.6 v 64 a 25.6,25.6 0 0 0 25.6,25.6 h 64 a 25.6,25.6 0 0 0 25.6,-25.6 v -64 A 25.6,25.6 0 0 0 89.6,0 m 0,64 h -64 V 51.2 h 64 V 64 m 140.8,76.8 h -64 a 25.6,25.6 0 0 0 -25.6,25.6 v 64 a 25.6,25.6 0 0 0 25.6,25.6 h 64 A 25.6,25.6 0 0 0 256,230.4 v -64 a 25.6,25.6 0 0 0 -25.6,-25.6 m 0,76.8 h -64 v -12.8 h 64 v 12.8 m 0,-25.6 h -64 v -12.8 h 64 V 192 m 0,-192 h -64 a 25.6,25.6 0 0 0 -25.6,25.6 v 64 a 25.6,25.6 0 0 0 25.6,25.6 h 64 A 25.6,25.6 0 0 0 256,89.6 v -64 A 25.6,25.6 0 0 0 230.4,0 m 0,64 H 204.8 V 89.6 H 192 V 64 H 166.4 V 51.2 H 192 V 25.6 h 12.8 v 25.6 h 25.6 V 64 M 89.6,140.8 h -64 A 25.6,25.6 0 0 0 0,166.4 v 64 A 25.6,25.6 0 0 0 25.6,256 h 64 a 25.6,25.6 0 0 0 25.6,-25.6 v -64 A 25.6,25.6 0 0 0 89.6,140.8 m -4.864,75.648 -9.088,9.088 L 57.6,207.488 39.552,225.536 30.464,216.448 48.512,198.4 30.464,180.352 l 9.088,-9.088 18.048,18.048 18.048,-18.048 9.088,9.088 -18.048,18.048 z"
     id="path2"
     style="fill:#3f51b5;fill-opacity:1;stroke-width:1"
     inkscape:connector-curvature="0" />
</svg>
